<?xml version="1.0" standalone="no"?>
<!DOCTYPE svg PUBLIC "-//W3C//DTD SVG 20010904//EN"
 "http://www.w3.org/TR/2001/REC-SVG-20010904/DTD/svg10.dtd">
<svg version="1.0" xmlns="http://www.w3.org/2000/svg"
 width="564.000000pt" height="564.000000pt" viewBox="0 0 564.000000 564.000000"
 preserveAspectRatio="xMidYMid meet">
<metadata>
Created by potrace 1.16, written by Peter Selinger 2001-2019
</metadata>
<g transform="translate(0.000000,564.000000) scale(0.100000,-0.100000)"
fill="#ffffff" stroke="none">
<path d="M3535 4851 c-22 -10 -50 -29 -62 -42 -12 -13 -72 -112 -133 -219
-226 -393 -242 -417 -394 -600 -271 -325 -577 -553 -880 -655 -187 -63 -222
-67 -608 -74 -339 -6 -358 -7 -384 -27 -54 -40 -69 -70 -69 -139 0 -70 17
-103 73 -141 29 -20 47 -21 344 -27 334 -6 379 -12 477 -61 153 -78 180 -250
86 -545 -48 -152 -94 -238 -414 -791 l-315 -545 -1 -60 c0 -69 19 -103 73
-129 38 -18 108 -21 149 -5 65 24 43 -10 477 743 243 422 295 502 431 665 310
371 635 593 1015 693 81 21 110 22 600 27 491 6 517 7 549 26 53 31 74 67 79
134 5 70 -15 120 -62 154 -31 22 -35 22 -511 28 -522 6 -525 6 -638 67 -137
74 -163 238 -81 511 34 112 97 258 154 356 106 181 239 413 260 454 70 139
-68 270 -215 202z"/>
</g>
</svg>
