<svg xmlns="http://www.w3.org/2000/svg" width="64" height="64" viewBox="0 0 64 64">
  <defs>
    <pattern id="notes" width="64" height="64" patternUnits="userSpaceOnUse">
      <g
        transform="translate(20, 18) rotate(45)"
        fill="none"
        stroke="#fff"
        stroke-width="1.35"
        stroke-linecap="round"
        stroke-linejoin="round"
        opacity="0.42"
      >
        <path d="M8 4H6a2 2 0 0 0-2 2v12a2 2 0 0 0 2 2h10a2 2 0 0 0 2-2V6a2 2 0 0 0-2-2h-2" />
        <path d="M8 2a2 2 0 0 1 2-2h2a2 2 0 0 1 2 2v0a2 2 0 0 1-2 2h-2a2 2 0 0 1-2-2z" />
        <path d="M8 11h6" />
        <path d="M8 15h6" />
      </g>
      <g
        transform="translate(48, 46) rotate(45)"
        fill="none"
        stroke="#fff"
        stroke-width="1.2"
        stroke-linecap="round"
        stroke-linejoin="round"
        opacity="0.24"
      >
        <path d="M8 4H6a2 2 0 0 0-2 2v12a2 2 0 0 0 2 2h10a2 2 0 0 0 2-2V6a2 2 0 0 0-2-2h-2" />
        <path d="M8 2a2 2 0 0 1 2-2h2a2 2 0 0 1 2 2v0a2 2 0 0 1-2 2h-2a2 2 0 0 1-2-2z" />
        <path d="M8 11h6" />
        <path d="M8 15h4" />
      </g>
    </pattern>
  </defs>
  <rect width="64" height="64" fill="url(#notes)" />
</svg>
